<svg xmlns="http://www.w3.org/2000/svg" xmlns:xlink="http://www.w3.org/1999/xlink" width="946.528" height="676.635" viewBox="0 0 946.528 676.635">
  <defs>
    <clipPath id="clip-path">
      <path id="Path_269" data-name="Path 269" d="M33.328,117.754H247.337V331.043H33.328Zm0,0" transform="translate(-33.328 -117.754)"/>
    </clipPath>
    <clipPath id="clip-path-2">
      <path id="Path_272" data-name="Path 272" d="M466,379H681.54V600.321H466Zm0,0" transform="translate(-466 -379)"/>
    </clipPath>
    <clipPath id="clip-path-3">
      <path id="Path_275" data-name="Path 275" d="M85,213H804.716V728.719H85Zm0,0" transform="translate(-85 -213)"/>
    </clipPath>
  </defs>
  <g id="email_verification" data-name="email verification" transform="translate(-33.328 -117.754)">
    <g id="Group_353" data-name="Group 353" transform="translate(33.328 117.754)" clip-path="url(#clip-path)">
      <path id="Path_268" data-name="Path 268" d="M245.949,228.869l-82.348.145,75.432,33.031L235,271.265,162.22,239.4,218.5,295.472l-7.1,7.128-57.885-57.68,30.536,75.8-9.331,3.754-29.969-74.383.145,80.2-10.064.02-.145-82.337-33.031,75.42-9.213-4.04,31.869-72.779L68.231,302.851l-7.127-7.1,57.68-57.883L42.988,268.4l-3.755-9.333L113.616,229.1l-80.2.145-.02-10.057,82.342-.152L40.321,186.012l4.032-9.219,72.779,31.87L60.846,152.586l7.108-7.128,57.884,57.68L95.3,127.337l9.332-3.756L134.6,197.964l-.145-80.2,10.058-.014.145,82.348L177.7,124.671l9.219,4.038-31.87,72.767,56.07-56.275,7.128,7.1-57.68,57.885,75.8-30.536,3.756,9.331L165.733,218.95l80.2-.139Zm0,0" transform="translate(-33.28 -117.754)" fill="#4422ef"/>
    </g>
    <path id="Path_270" data-name="Path 270" d="M118.525,187.1a16.109,16.109,0,0,1-.3,3.082,15.92,15.92,0,0,1-.9,2.957,16.182,16.182,0,0,1-1.46,2.727,15.938,15.938,0,0,1-1.967,2.4,15.476,15.476,0,0,1-2.389,1.96,15.706,15.706,0,0,1-5.688,2.355,15.735,15.735,0,0,1-6.157,0,15.822,15.822,0,0,1-2.957-.9,15.8,15.8,0,0,1-8.54-8.54,15.884,15.884,0,0,1-.9-2.957,15.757,15.757,0,0,1,0-6.156,15.705,15.705,0,0,1,2.356-5.688,15.4,15.4,0,0,1,1.96-2.389,15.845,15.845,0,0,1,2.4-1.967,16.2,16.2,0,0,1,2.726-1.46,15.953,15.953,0,0,1,2.957-.9,15.814,15.814,0,0,1,9.12.9,16.5,16.5,0,0,1,2.725,1.46,16.028,16.028,0,0,1,4.355,4.355,16.431,16.431,0,0,1,1.46,2.725,15.855,15.855,0,0,1,1.2,6.038Zm0,0" transform="translate(36.981 36.93)" fill="#eef2ff"/>
    <g id="Group_354" data-name="Group 354" transform="translate(764.316 559.123)" clip-path="url(#clip-path-2)">
      <path id="Path_271" data-name="Path 271" d="M650.022,565.587l-42.507-14.921-7.912,37.38-16.8-19.6-19.917,30.522L550.64,564.208l-27.552,20.1L524.222,536l-43.854,4.646,13.543-22.168L468.833,511.7l27.091-20.723-29.868-21.6,42.25-12.637L488.6,412.6l35.454,8.454-1.287-25.778,24.477,16.881,10.5-32.543,21.727,31.434,33.458-30.181,3.413,42.62L650.154,410.6l-8.5,28.55,29.79-.066L647.91,469.927,681.529,489.3,648.121,503.2l26.834,33.281-34.178.845Zm0,0" transform="translate(-465.962 -378.577)" fill="#4422ef"/>
    </g>
    <path id="Path_273" data-name="Path 273" d="M801.136,257.126v426.69c0,23.832-19.066,43.141-42.573,43.141H128.429c-23.515,0-42.574-19.309-42.574-43.141V257.126c0-23.825,19.059-43.142,42.574-43.142H758.563C782.07,213.984,801.136,233.3,801.136,257.126Zm0,0" transform="translate(36.216 66.348)" fill="#eef2ff"/>
    <g id="Group_355" data-name="Group 355" transform="translate(120.626 278.67)" clip-path="url(#clip-path-3)">
      <path id="Path_274" data-name="Path 274" d="M759.1,728.825H128.971c-24.207,0-43.9-19.943-43.9-44.467V257.668c0-24.518,19.693-44.469,43.9-44.469H759.1C783.311,213.2,803,233.15,803,257.668v426.69C803,708.883,783.3,728.825,759.1,728.825ZM128.971,215.853c-22.742,0-41.248,18.755-41.248,41.815v426.69c0,23.06,18.505,41.814,41.248,41.814H759.1c22.742,0,41.247-18.755,41.247-41.814V257.668c0-23.06-18.5-41.815-41.247-41.815Zm0,0" transform="translate(-84.952 -212.863)" fill="#212121"/>
    </g>
    <path id="Path_276" data-name="Path 276" d="M801.136,257.126v36.667H85.855V257.126c0-23.825,19.059-43.142,42.574-43.142H758.563C782.07,213.984,801.136,233.3,801.136,257.126Zm0,0" transform="translate(36.216 66.348)" fill="#212121"/>
    <path id="Path_277" data-name="Path 277" d="M128.091,242.367a12.1,12.1,0,0,1-.845,4.467,11.608,11.608,0,0,1-1.022,2.019,11.215,11.215,0,0,1-1.387,1.769,11.1,11.1,0,0,1-1.676,1.453,10.814,10.814,0,0,1-4.006,1.749,10.533,10.533,0,0,1-4.328,0,11.086,11.086,0,0,1-2.08-.667,11.158,11.158,0,0,1-3.6-2.534,11.262,11.262,0,0,1-1.379-1.769,11.636,11.636,0,0,1-1.029-2.019,12.158,12.158,0,0,1-.627-6.744,11.811,11.811,0,0,1,1.656-4.21,11.584,11.584,0,0,1,1.379-1.769,11.394,11.394,0,0,1,1.684-1.453,10.985,10.985,0,0,1,1.919-1.074,10.614,10.614,0,0,1,2.08-.667,10.533,10.533,0,0,1,4.328,0,10.532,10.532,0,0,1,2.087.667,10.985,10.985,0,0,1,1.919,1.074,11.675,11.675,0,0,1,3.063,3.222,12.109,12.109,0,0,1,1.022,2.019,12.1,12.1,0,0,1,.845,4.469Zm0,0" transform="translate(50.03 77.867)" fill="#eef2ff"/>
    <path id="Path_278" data-name="Path 278" d="M151.763,242.367a12.482,12.482,0,0,1-.845,4.467,11.8,11.8,0,0,1-2.409,3.788,10.823,10.823,0,0,1-1.683,1.453,10.576,10.576,0,0,1-1.914,1.081,11.094,11.094,0,0,1-2.085.667,10.533,10.533,0,0,1-4.328,0,10.993,10.993,0,0,1-2.087-.667,10.69,10.69,0,0,1-1.914-1.081,10.983,10.983,0,0,1-1.683-1.453,11.837,11.837,0,0,1-2.408-3.788,12.153,12.153,0,0,1-.634-2.191,12.195,12.195,0,0,1,.634-6.744,11.537,11.537,0,0,1,2.408-3.788,11.469,11.469,0,0,1,1.683-1.453,10.761,10.761,0,0,1,1.914-1.074,10.532,10.532,0,0,1,2.087-.667,10.533,10.533,0,0,1,4.328,0,10.624,10.624,0,0,1,2.085.667,10.882,10.882,0,0,1,1.914,1.074,11.294,11.294,0,0,1,1.683,1.453,11.8,11.8,0,0,1,2.409,3.788,12.482,12.482,0,0,1,.845,4.469Zm0,0" transform="translate(66.352 77.867)" fill="#eef2ff"/>
    <path id="Path_279" data-name="Path 279" d="M175.267,242.367a12.1,12.1,0,0,1-.845,4.467,11.805,11.805,0,0,1-2.409,3.788,10.825,10.825,0,0,1-1.683,1.453,10.575,10.575,0,0,1-1.914,1.081,11.1,11.1,0,0,1-2.085.667,10.542,10.542,0,0,1-4.33,0,11.175,11.175,0,0,1-2.085-.667A10.69,10.69,0,0,1,158,252.075a10.98,10.98,0,0,1-1.683-1.453,11.881,11.881,0,0,1-2.409-3.788,12.282,12.282,0,0,1-.634-6.744,12.647,12.647,0,0,1,.634-2.191,11.881,11.881,0,0,1,2.409-3.788A11.465,11.465,0,0,1,158,232.658a10.886,10.886,0,0,1,4-1.742,10.542,10.542,0,0,1,4.33,0,10.886,10.886,0,0,1,4,1.742,11.3,11.3,0,0,1,1.683,1.453,11.805,11.805,0,0,1,2.409,3.788,12.1,12.1,0,0,1,.845,4.469Zm0,0" transform="translate(82.556 77.867)" fill="#eef2ff"/>
    <path id="Path_280" data-name="Path 280" d="M649.531,381.868H161.661A20.844,20.844,0,0,1,140.82,361.02V338.6a20.838,20.838,0,0,1,20.841-20.841h487.87A20.844,20.844,0,0,1,670.379,338.6V361.02A20.845,20.845,0,0,1,649.531,381.868Zm0,0" transform="translate(74.113 137.895)" fill="#eef2ff"/>
    <path id="Path_281" data-name="Path 281" d="M650.072,383.735H162.2a22.2,22.2,0,0,1-22.168-22.174V339.137A22.19,22.19,0,0,1,162.2,316.969h487.87a22.189,22.189,0,0,1,22.168,22.168v22.424A22.2,22.2,0,0,1,650.072,383.735ZM162.2,319.615a19.544,19.544,0,0,0-19.515,19.522v22.424A19.544,19.544,0,0,0,162.2,381.083h487.87a19.544,19.544,0,0,0,19.52-19.522V339.137a19.544,19.544,0,0,0-19.52-19.522Zm0,0" transform="translate(73.572 137.354)" fill="#212121"/>
    <path id="Path_282" data-name="Path 282" d="M649.531,443.734H161.661a20.848,20.848,0,0,1-20.841-20.846V400.461a20.845,20.845,0,0,1,20.841-20.848h487.87a20.851,20.851,0,0,1,20.848,20.848v22.426A20.845,20.845,0,0,1,649.531,443.734Zm0,0" transform="translate(74.113 180.545)" fill="#eef2ff"/>
    <path id="Path_283" data-name="Path 283" d="M650.072,445.593H162.2a22.2,22.2,0,0,1-22.168-22.168V401A22.19,22.19,0,0,1,162.2,378.832h487.87A22.19,22.19,0,0,1,672.24,401v22.426A22.186,22.186,0,0,1,650.072,445.593ZM162.2,381.478A19.543,19.543,0,0,0,142.687,401v22.426a19.542,19.542,0,0,0,19.515,19.52h487.87a19.542,19.542,0,0,0,19.52-19.52V401a19.544,19.544,0,0,0-19.52-19.522Zm0,0" transform="translate(73.572 180.007)" fill="#212121"/>
    <path id="Path_284" data-name="Path 284" d="M649.531,505.6H161.661a20.849,20.849,0,0,1-20.841-20.848V462.321a20.843,20.843,0,0,1,20.841-20.841h487.87a20.845,20.845,0,0,1,20.848,20.841v22.426A20.851,20.851,0,0,1,649.531,505.6Zm0,0" transform="translate(74.113 223.201)" fill="#eef2ff"/>
    <path id="Path_285" data-name="Path 285" d="M650.072,507.463H162.2a22.2,22.2,0,0,1-22.168-22.174V462.863A22.19,22.19,0,0,1,162.2,440.7h487.87a22.19,22.19,0,0,1,22.168,22.168v22.426A22.2,22.2,0,0,1,650.072,507.463ZM162.2,443.342a19.542,19.542,0,0,0-19.515,19.52v22.426A19.543,19.543,0,0,0,162.2,504.811h487.87a19.544,19.544,0,0,0,19.52-19.522V462.863a19.542,19.542,0,0,0-19.52-19.52Zm0,0" transform="translate(73.572 222.66)" fill="#212121"/>
    <path id="Path_286" data-name="Path 286" d="M136.778,353.49l-6.494-1.7a1.924,1.924,0,0,0-1.762.409l-5.082,4.389a1.947,1.947,0,0,1-3.213-1.36l-.39-6.7a1.94,1.94,0,0,0-.929-1.551l-5.743-3.479a1.947,1.947,0,0,1,.3-3.479l6.249-2.441a1.936,1.936,0,0,0,1.181-1.365l1.532-6.542a1.943,1.943,0,0,1,3.4-.784l4.257,5.187a1.954,1.954,0,0,0,1.669.706l6.685-.561a1.948,1.948,0,0,1,1.8,2.989l-3.624,5.65a1.975,1.975,0,0,0-.159,1.808l2.607,6.185A1.941,1.941,0,0,1,136.778,353.49Zm0,0" transform="translate(54.397 145.082)" fill="#4422ef"/>
    <path id="Path_287" data-name="Path 287" d="M136.778,415.351l-6.494-1.695a1.919,1.919,0,0,0-1.762.409l-5.082,4.388a1.947,1.947,0,0,1-3.213-1.358l-.39-6.7a1.94,1.94,0,0,0-.929-1.551l-5.743-3.479a1.94,1.94,0,0,1,.3-3.47l6.249-2.45a1.933,1.933,0,0,0,1.181-1.365l1.532-6.533a1.945,1.945,0,0,1,3.4-.792l4.257,5.187a1.954,1.954,0,0,0,1.669.706l6.685-.561a1.949,1.949,0,0,1,1.8,2.99l-3.624,5.648a1.979,1.979,0,0,0-.159,1.809l2.607,6.183A1.94,1.94,0,0,1,136.778,415.351Zm0,0" transform="translate(54.397 187.737)" fill="#4422ef"/>
    <path id="Path_288" data-name="Path 288" d="M136.778,477.217l-6.494-1.7a1.919,1.919,0,0,0-1.762.409l-5.082,4.389a1.948,1.948,0,0,1-3.213-1.36l-.39-6.7a1.94,1.94,0,0,0-.929-1.551l-5.743-3.477a1.946,1.946,0,0,1,.3-3.479l6.249-2.441a1.936,1.936,0,0,0,1.181-1.374l1.532-6.533a1.944,1.944,0,0,1,3.4-.786l4.257,5.187a1.95,1.95,0,0,0,1.669.706l6.685-.561a1.949,1.949,0,0,1,1.8,2.99l-3.624,5.65a1.975,1.975,0,0,0-.159,1.808l2.607,6.183A1.944,1.944,0,0,1,136.778,477.217Zm0,0" transform="translate(54.397 230.389)" fill="#4422ef"/>
    <path id="Path_289" data-name="Path 289" d="M381.352,526.991c33.876-25.937,80.4-67.62,120.764-128.236A489.142,489.142,0,0,0,572.91,233.788a19.878,19.878,0,0,0-4.687-17.549c-20.076-22.794-81.94-82.355-182.139-84.183-104.874-1.9-170.782,60.928-191.532,84.183a19.963,19.963,0,0,0-4.83,17.594,478.647,478.647,0,0,0,63.605,154.884C295.789,455.961,346.625,500.764,381.352,526.991Zm0,0" transform="translate(107.527 9.832)" fill="#eef2ff"/>
    <path id="Path_290" data-name="Path 290" d="M381.9,529.192l-.806-.607A545.608,545.608,0,0,1,319.83,474.7a516.247,516.247,0,0,1-67.084-84.731,479.48,479.48,0,0,1-63.778-155.313,21.279,21.279,0,0,1,5.134-18.762A263.185,263.185,0,0,1,258.66,164.1a248.53,248.53,0,0,1,249.758,1.583A257.9,257.9,0,0,1,569.761,215.9a21.13,21.13,0,0,1,4.989,18.716,489.646,489.646,0,0,1-70.985,165.4C471.429,448.586,430.7,491.833,382.7,528.579Zm0-395.31c-100.128,0-163.154,58.373-185.817,83.781a18.615,18.615,0,0,0-4.519,16.432A476.532,476.532,0,0,0,254.99,388.55c33.058,52.342,75.744,98.53,126.9,137.31C429.3,489.431,469.56,446.6,501.555,398.555a487.015,487.015,0,0,0,70.608-164.519,18.51,18.51,0,0,0-4.389-16.379c-21.652-24.584-82.664-81.94-181.169-83.729Q384.238,133.88,381.9,133.882Zm0,0" transform="translate(106.986 9.293)" fill="#212121"/>
    <path id="Path_291" data-name="Path 291" d="M548.1,233.787A443.875,443.875,0,0,1,483.842,383.5c-36.633,55.008-78.851,92.835-109.591,116.376-.027-.02-.052-.041-.073-.052-31.512-23.811-77.6-64.452-116.111-125.432a434.208,434.208,0,0,1-57.714-140.556,18.114,18.114,0,0,1,4.383-15.964c18.539-20.782,76.812-76.376,169.449-76.435q2.169,0,4.369.039c90.928,1.651,147.064,55.707,165.292,76.39A18.07,18.07,0,0,1,548.1,233.787Zm0,0" transform="translate(114.886 16.327)" fill="#4422ef"/>
    <path id="Path_292" data-name="Path 292" d="M367.2,187.84a57.436,57.436,0,0,0-98.121,40.613V264.6H286.55a40.538,40.538,0,0,1-.37-5.484V229.556a40.4,40.4,0,0,1,80.8,0v29.559a40.8,40.8,0,0,1-.368,5.484H384.09V228.453A57.328,57.328,0,0,0,367.2,187.84Zm0,0" transform="translate(162.541 36.674)" fill="#212121"/>
    <path id="Path_293" data-name="Path 293" d="M385.67,343.7H277.1a15,15,0,0,1-15-15.008V233.278a15,15,0,0,1,15-15H385.67a15,15,0,0,1,15,15v95.416A15,15,0,0,1,385.67,343.7Zm0,0" transform="translate(157.734 69.308)" fill="#eef2ff"/>
    <path id="Path_294" data-name="Path 294" d="M386.212,345.569H277.643a16.349,16.349,0,0,1-16.327-16.334V233.819a16.347,16.347,0,0,1,16.327-16.327H386.212a16.347,16.347,0,0,1,16.327,16.327v95.416A16.349,16.349,0,0,1,386.212,345.569ZM277.643,220.139a13.694,13.694,0,0,0-13.673,13.68v95.416a13.694,13.694,0,0,0,13.673,13.68H386.212a13.7,13.7,0,0,0,13.675-13.68V233.819a13.7,13.7,0,0,0-13.675-13.68Zm0,0" transform="translate(157.192 68.767)" fill="#212121"/>
    <path id="Path_295" data-name="Path 295" d="M279.827,229.128a4.6,4.6,0,0,1-.343,1.737,4.553,4.553,0,0,1-2.455,2.448,4.548,4.548,0,0,1-3.465,0,4.553,4.553,0,0,1-2.455-2.448,4.565,4.565,0,0,1,0-3.472,4.532,4.532,0,0,1,4.19-2.791,4.433,4.433,0,0,1,1.73.343,4.553,4.553,0,0,1,2.455,2.448A4.591,4.591,0,0,1,279.827,229.128Zm0,0" transform="translate(163.707 73.669)" fill="#212121"/>
    <path id="Path_296" data-name="Path 296" d="M339.452,229.128a4.48,4.48,0,0,1-.35,1.737,4.393,4.393,0,0,1-.977,1.465,4.521,4.521,0,0,1-3.208,1.326,4.52,4.52,0,0,1-3.2-1.326,4.516,4.516,0,0,1,0-6.4,4.52,4.52,0,0,1,3.2-1.326,4.521,4.521,0,0,1,3.208,1.326,4.392,4.392,0,0,1,.977,1.465A4.471,4.471,0,0,1,339.452,229.128Zm0,0" transform="translate(204.817 73.669)" fill="#212121"/>
    <path id="Path_297" data-name="Path 297" d="M339.452,286.613a4.6,4.6,0,0,1-1.326,3.2,4.591,4.591,0,0,1-1.472.983,4.548,4.548,0,0,1-3.465,0,4.536,4.536,0,0,1-2.455-2.455,4.547,4.547,0,0,1,0-3.465,4.59,4.59,0,0,1,.983-1.472,4.6,4.6,0,0,1,3.2-1.326,4.546,4.546,0,0,1,4.535,4.535Zm0,0" transform="translate(204.817 113.297)" fill="#212121"/>
    <path id="Path_298" data-name="Path 298" d="M279.827,286.613a4.531,4.531,0,0,1-2.8,4.183,4.548,4.548,0,0,1-3.465,0,4.591,4.591,0,0,1-1.472-.983,4.521,4.521,0,0,1-1.326-3.2,4.521,4.521,0,0,1,1.326-3.208,4.6,4.6,0,0,1,3.207-1.326,4.44,4.44,0,0,1,1.73.35,4.489,4.489,0,0,1,1.472.977,4.521,4.521,0,0,1,1.326,3.208Zm0,0" transform="translate(163.707 113.297)" fill="#212121"/>
    <path id="Path_299" data-name="Path 299" d="M319.1,257.7a11.314,11.314,0,0,1-4.065,8.7v20.313a7.289,7.289,0,0,1-14.578,0V266.4a11.355,11.355,0,1,1,18.643-8.7Zm0,0" transform="translate(181.375 88.657)" fill="#212121"/>
  </g>
</svg>
